# Blender 5.0.1
# www.blender.org
mtllib penguin.remoded.mtl
o animal-penguin
v -0.062500 0.062500 2.091038
v -0.062500 0.062500 2.341038
v -0.100000 0.306250 2.116038
v -0.100000 0.306250 2.316038
v -0.150000 0.306250 2.366038
v -0.125000 0.062500 2.403538
v -0.150000 0.306250 2.066038
v -0.125000 0.062500 2.028538
v -0.437500 0.062500 2.341038
v -0.400000 0.306250 2.316038
v -0.375000 0.062500 2.403538
v -0.350000 0.306250 2.366038
v -0.350000 0.306250 2.066038
v -0.400000 0.306250 2.116038
v -0.375000 0.000000 2.315150
v -0.375000 -0.000000 2.116926
v -0.437500 0.062500 2.091038
v -0.375000 0.062500 2.028538
v -0.349112 -0.000000 2.091038
v -0.150888 -0.000000 2.091038
v -0.125000 -0.000000 2.116926
v -0.125000 0.000000 2.315149
v -0.150888 0.000000 2.341038
v -0.349112 0.000000 2.341038
v 0.262500 1.093750 2.851038
v 0.362500 1.066955 2.851038
v 0.162500 1.066955 2.851038
v 0.182708 1.013958 2.851038
v 0.122604 0.997853 2.851038
v 0.089295 0.993750 2.851038
v 0.078605 0.953854 2.851038
v 0.242812 0.997853 2.851038
v 0.435705 0.993750 2.851038
v 0.286812 0.953854 2.851038
v 0.302916 0.893750 2.851038
v 0.462500 0.893750 2.851038
v 0.286812 0.833646 2.851038
v 0.435705 0.793750 2.851038
v 0.242812 0.789647 2.851038
v 0.182708 0.773542 2.851038
v 0.362500 0.720545 2.851038
v 0.089295 0.793750 2.851038
v 0.122604 0.789647 2.851038
v 0.078605 0.833646 2.851038
v 0.162500 0.720545 2.851038
v 0.262500 0.693750 2.851038
v -0.262500 1.093750 2.851038
v -0.362500 1.066955 2.851038
v -0.162500 1.066955 2.851038
v -0.182708 1.013958 2.851038
v -0.122604 0.997853 2.851038
v -0.089295 0.993750 2.851038
v -0.078605 0.953854 2.851038
v -0.242812 0.997853 2.851038
v -0.435705 0.993750 2.851038
v -0.286812 0.953854 2.851038
v -0.302916 0.893750 2.851038
v -0.462500 0.893750 2.851038
v -0.286812 0.833646 2.851038
v -0.435705 0.793750 2.851038
v -0.242812 0.789647 2.851038
v -0.182708 0.773542 2.851038
v -0.362500 0.720545 2.851038
v -0.089295 0.793750 2.851038
v -0.122604 0.789647 2.851038
v -0.078605 0.833646 2.851038
v -0.162500 0.720545 2.851038
v -0.262500 0.693750 2.851038
v 0.242513 1.232160 2.765431
v 0.425911 1.232160 2.765431
v 0.078125 1.118750 2.841038
v 0.312500 1.118750 2.841038
v -0.312500 1.118750 2.841038
v 0.482194 1.128006 2.727909
v -0.078125 1.118750 2.841038
v -0.242513 1.232160 2.765431
v -0.425910 1.232160 2.765431
v -0.482193 1.128006 2.727909
v -0.500000 0.985375 2.716038
v 0.500000 0.985375 2.716038
v -0.312500 0.493750 2.841038
v -0.500000 0.306250 2.716038
v 0.312500 0.493750 2.841038
v 0.500000 0.306250 2.716038
v 0.312500 0.181250 2.528538
v -0.312500 0.181250 2.528538
v 0.312500 0.181250 1.903538
v -0.312500 0.181250 1.903538
v 0.062500 0.893750 2.851038
v -0.062500 0.893750 2.851038
v 0.625000 1.118750 2.528538
v 0.625000 0.493750 2.528538
v 0.500000 1.306250 2.716038
v 0.500000 0.306250 2.716038
v 0.500000 0.985374 2.716038
v -0.500000 0.306250 1.716038
v -0.500000 1.306250 1.716038
v -0.625000 0.493750 1.903538
v -0.625000 1.118750 1.903538
v -0.312500 0.493750 1.591038
v -0.312500 1.118750 1.591038
v 0.500000 1.306250 1.716038
v 0.312500 1.431250 1.903538
v -0.312500 1.431250 1.903538
v 0.500000 0.306250 1.716038
v 0.312500 0.181250 1.903538
v -0.312500 0.181250 1.903538
v 0.625000 1.118750 1.903538
v 0.312500 0.181250 2.528538
v 0.312500 0.493750 1.591038
v 0.312500 1.118750 1.591038
v -0.500000 0.985374 2.716038
v -0.500000 1.306250 2.716038
v -0.625000 0.493750 2.528538
v -0.625000 1.118750 2.528538
v 0.312500 1.431250 2.528538
v -0.312500 1.431250 2.528538
v -0.078125 1.118750 2.841038
v 0.625000 0.493750 1.903538
v -0.500000 0.306250 2.716038
v -0.312500 0.181250 2.528538
v -0.089000 1.594250 2.616038
v -0.062932 1.594250 2.678970
v -0.062932 1.594250 2.553105
v 0.000000 1.594250 2.527038
v 0.000000 1.594250 2.705038
v 0.062933 1.594250 2.553105
v 0.062933 1.594250 2.678970
v 0.089000 1.594250 2.616038
v 0.095714 1.522250 2.520324
v 0.135360 1.522250 2.616038
v 0.070711 1.306250 2.545327
v 0.100000 1.306250 2.616038
v -0.095714 1.522250 2.520324
v -0.135360 1.522250 2.616038
v -0.070711 1.306250 2.686749
v 0.000000 1.306250 2.716038
v -0.095714 1.522250 2.711752
v 0.000000 1.522250 2.751398
v -0.070711 1.306250 2.545327
v -0.100000 1.306250 2.616038
v 0.095714 1.522250 2.711752
v 0.000000 1.306250 2.516038
v 0.000000 1.522250 2.480678
v 0.070711 1.306250 2.686749
v -0.316426 1.479076 2.447992
v -0.305638 1.512526 2.506342
v -0.282063 1.471693 2.389642
v -0.222680 1.494702 2.365472
v -0.256020 1.552449 2.530511
v -0.173061 1.534625 2.389642
v -0.196636 1.575458 2.506342
v -0.162273 1.568076 2.447992
v -0.105153 1.482568 2.386219
v -0.088746 1.533442 2.474963
v -0.031354 1.304737 2.490317
v -0.019233 1.342322 2.555879
v -0.270934 1.386854 2.386219
v -0.323196 1.398082 2.474963
v -0.180317 1.279906 2.621440
v -0.124565 1.324764 2.648597
v -0.306789 1.448957 2.563708
v -0.231324 1.509676 2.600467
v -0.153828 1.234027 2.490317
v -0.192438 1.242322 2.555879
v -0.141008 1.544671 2.563708
v -0.087105 1.259880 2.463160
v -0.180618 1.421849 2.349460
v -0.057842 1.350617 2.621440
v 0.316426 1.479076 2.447992
v 0.305638 1.512526 2.506342
v 0.282063 1.471693 2.389642
v 0.222680 1.494702 2.365472
v 0.256020 1.552449 2.530511
v 0.173061 1.534625 2.389642
v 0.196636 1.575458 2.506342
v 0.162273 1.568076 2.447992
v 0.105153 1.482568 2.386219
v 0.088746 1.533442 2.474963
v 0.031354 1.304737 2.490317
v 0.019233 1.342322 2.555879
v 0.270934 1.386854 2.386219
v 0.323196 1.398082 2.474963
v 0.180317 1.279906 2.621440
v 0.124565 1.324764 2.648597
v 0.306789 1.448957 2.563708
v 0.231324 1.509676 2.600467
v 0.153828 1.234027 2.490317
v 0.192438 1.242322 2.555879
v 0.141008 1.544671 2.563708
v 0.087105 1.259880 2.463160
v 0.180618 1.421849 2.349460
v 0.057842 1.350617 2.621440
v 0.000000 0.853750 2.741038
v 0.000000 0.817270 2.941038
v -0.162635 0.797515 2.741038
v -0.131734 0.771719 2.941038
v -0.230000 0.661750 2.741038
v -0.186300 0.661750 2.941038
v 0.162635 0.797515 2.741038
v 0.230000 0.661750 2.741038
v 0.131734 0.771719 2.941038
v 0.186300 0.661750 2.941038
v -0.171790 0.601750 2.741038
v -0.128090 0.601750 2.941038
v 0.171790 0.601750 2.741038
v 0.128090 0.601750 2.941038
v 0.168933 0.626750 2.941038
v 0.212633 0.626750 2.741038
v -0.168933 0.626750 2.941038
v -0.212633 0.626750 2.741038
v 0.463660 0.593750 2.161931
v 0.463660 0.693750 2.161931
v 0.632764 0.593750 2.571739
v 0.503943 0.543750 2.195390
v 0.455853 0.543750 2.311931
v 0.401764 0.593750 2.311931
v 0.503943 0.743750 2.428473
v 0.463660 0.693750 2.461931
v 0.455853 0.743750 2.311931
v 0.401764 0.693750 2.311931
v 0.859569 0.543750 2.560450
v 0.503943 0.743750 2.195390
v 0.503943 0.543750 2.428473
v 0.463660 0.593750 2.461931
v -0.463660 0.693750 2.161931
v -0.632764 0.693750 2.052124
v -0.463660 0.593750 2.161931
v -0.503943 0.743750 2.195390
v -0.455853 0.743750 2.311931
v -0.401764 0.693750 2.311931
v -0.503943 0.543750 2.428473
v -0.463660 0.593750 2.461931
v -0.455853 0.543750 2.311931
v -0.401764 0.593750 2.311931
v -0.503943 0.543750 2.195390
v -0.503943 0.743750 2.428473
v -0.463660 0.693750 2.461931
v 0.350000 0.306250 2.366038
v 0.400000 0.306250 2.316038
v 0.375000 0.062500 2.403538
v 0.437500 0.062500 2.341038
v 0.062500 0.062500 2.341038
v 0.100000 0.306250 2.316038
v 0.125000 0.062500 2.403538
v 0.150000 0.306250 2.366038
v 0.062500 0.062500 2.091038
v 0.100000 0.306250 2.116038
v 0.437500 0.062500 2.091038
v 0.400000 0.306250 2.116038
v 0.125000 0.062500 2.028538
v 0.375000 0.062500 2.028538
v 0.150000 0.306250 2.066038
v 0.350000 0.306250 2.066038
v 0.150888 -0.000000 2.091038
v 0.349112 -0.000000 2.091038
v 0.150888 0.000000 2.341038
v 0.349112 0.000000 2.341038
v 0.125000 0.000000 2.315150
v 0.125000 -0.000000 2.116926
v 0.375000 -0.000000 2.116926
v 0.375000 0.000000 2.315149
vn 0.9125 0.1782 -0.3682
vn 0.8833 -0.2865 0.3711
vn 0.8833 -0.2865 -0.3711
vn 0.9125 0.1782 0.3682
vn 0.3711 -0.2865 0.8833
vn 0.3682 0.1782 0.9125
vn 0.3711 -0.2865 -0.8833
vn 0.3682 0.1782 -0.9125
vn -0.3711 -0.2865 0.8833
vn -0.9125 0.1782 0.3682
vn -0.8833 -0.2865 0.3711
vn -0.3682 0.1782 0.9125
vn -0.0000 1.0000 -0.0000
vn -0.4044 -0.8991 -0.1675
vn -0.4044 -0.8991 0.1675
vn -0.8833 -0.2865 -0.3711
vn -0.1675 -0.8991 -0.4044
vn -0.3711 -0.2865 -0.8833
vn 0.1675 -0.8991 -0.4044
vn -0.9125 0.1782 -0.3682
vn 0.4044 -0.8991 0.1675
vn 0.4044 -0.8991 -0.1675
vn 0.1675 -0.8991 0.4044
vn -0.3682 0.1782 -0.9125
vn -0.1675 -0.8991 0.4044
vn -0.0000 -0.0000 1.0000
vn -0.0000 0.1027 0.9947
vn 0.3740 0.2257 0.8995
vn -0.0000 0.5547 0.8320
vn 0.2232 0.2232 0.9489
vn -1.0000 -0.0001 -0.0000
vn 1.0000 0.0001 -0.0000
vn 1.0000 -0.0000 -0.0000
vn 0.5547 -0.0000 0.8321
vn -0.2221 0.2252 0.9487
vn -0.3740 0.2257 0.8996
vn -0.5547 -0.0000 0.8320
vn -0.2245 0.2210 0.9491
vn -0.3755 0.2240 0.8993
vn -0.5547 -0.0000 0.8321
vn -0.2232 -0.2232 0.9489
vn -0.2074 -0.5185 0.8296
vn 0.2232 -0.2232 0.9489
vn 0.2074 -0.5185 0.8296
vn -0.0000 -0.9398 0.3417
vn -0.0000 -1.0000 -0.0000
vn 0.5771 0.5797 0.5753
vn 0.9489 -0.2232 0.2232
vn 0.9489 0.2232 0.2232
vn 0.8296 -0.5185 0.2074
vn -0.0000 -1.0000 0.0001
vn -0.0000 1.0000 -0.0001
vn -0.9489 -0.2232 -0.2232
vn -0.5774 0.5774 -0.5773
vn -0.5774 -0.5773 -0.5773
vn -0.9489 0.2232 -0.2232
vn -0.2232 -0.2232 -0.9489
vn -0.2232 0.2232 -0.9489
vn 0.2232 0.9489 -0.2232
vn 0.5773 0.5774 -0.5773
vn -0.2232 0.9489 -0.2232
vn 0.3015 -0.9045 -0.3015
vn 0.5774 -0.5774 -0.5773
vn -0.3015 -0.9045 -0.3015
vn 0.9489 0.2232 -0.2232
vn 0.5547 -0.8321 -0.0000
vn 0.2232 -0.2232 -0.9489
vn 0.2232 0.2232 -0.9489
vn -0.5773 0.5773 0.5774
vn -0.8209 -0.0000 0.5710
vn -0.2571 0.3448 0.9028
vn -0.9489 -0.2232 0.2232
vn -0.9489 0.2232 0.2232
vn -0.2232 0.9489 0.2232
vn 0.2232 0.9489 0.2232
vn -1.0000 -0.0000 -0.0000
vn 0.2554 0.3464 0.9027
vn 0.5770 0.5791 0.5759
vn 0.8209 -0.0000 0.5710
vn 0.2571 0.3448 0.9028
vn 0.9489 -0.2232 -0.2232
vn -0.8296 -0.5185 0.2074
vn -0.0000 1.0000 0.0001
vn -0.0000 -1.0000 -0.0001
vn -0.5547 -0.8321 -0.0000
vn -0.0000 0.8282 0.5605
vn -0.3963 0.8282 0.3963
vn -0.0000 0.1880 0.9822
vn -0.6945 0.1880 0.6945
vn 0.6945 0.1880 0.6945
vn 0.6978 -0.1616 0.6978
vn -0.0000 -0.1616 0.9869
vn -0.0000 0.1880 -0.9822
vn 0.6945 0.1880 -0.6945
vn -0.0000 -0.1616 -0.9869
vn 0.6978 -0.1616 -0.6978
vn -0.0000 0.8282 -0.5605
vn 0.3963 0.8282 -0.3963
vn -0.5605 0.8282 -0.0000
vn -0.9822 0.1880 -0.0000
vn 0.5605 0.8282 -0.0000
vn 0.9822 0.1880 -0.0000
vn 0.3963 0.8282 0.3963
vn -0.3963 0.8282 -0.3963
vn -0.6945 0.1880 -0.6945
vn -0.6978 -0.1616 0.6978
vn -0.9869 -0.1616 -0.0000
vn 0.9869 -0.1616 -0.0000
vn -0.6978 -0.1616 -0.6978
vn -0.4889 0.8468 0.2094
vn -0.8014 0.5954 0.0572
vn -0.2711 0.4696 0.8402
vn -0.8187 0.0290 0.5735
vn 0.3842 0.7235 0.5735
vn 0.5485 0.4456 0.7075
vn -0.1099 0.1904 0.9755
vn 0.0968 -0.1677 -0.9811
vn 0.6444 0.2729 -0.7143
vn 0.2597 -0.4499 -0.8545
vn 0.8099 -0.0072 -0.5865
vn -0.2790 0.4832 -0.8299
vn 0.0335 0.7346 -0.6777
vn -0.8693 0.3848 -0.3102
vn -0.9377 -0.3402 -0.0704
vn 0.1014 0.9452 -0.3102
vn 0.7635 0.6420 -0.0704
vn -0.1150 0.9917 0.0572
vn -0.6529 0.3383 -0.6777
vn -0.5585 -0.4216 -0.7143
vn -0.6601 -0.2522 0.7075
vn -0.7798 -0.6232 0.0605
vn 0.9295 0.3637 0.0605
vn -0.3987 -0.7050 -0.5865
vn 0.6529 0.3383 -0.6777
vn 0.8014 0.5954 0.0572
vn 0.8693 0.3848 -0.3102
vn 0.2790 0.4832 -0.8299
vn 0.4889 0.8468 0.2094
vn -0.0335 0.7346 -0.6777
vn 0.1150 0.9917 0.0572
vn -0.1014 0.9452 -0.3102
vn -0.8099 -0.0072 -0.5865
vn -0.7635 0.6420 -0.0704
vn -0.6444 0.2729 -0.7143
vn -0.9295 0.3637 0.0605
vn 0.9377 -0.3402 -0.0704
vn 0.5585 -0.4216 -0.7143
vn 0.8187 0.0290 0.5735
vn 0.1099 0.1904 0.9755
vn 0.6601 -0.2522 0.7075
vn 0.2711 0.4696 0.8402
vn 0.3987 -0.7050 -0.5865
vn 0.7798 -0.6232 0.0605
vn -0.3842 0.7235 0.5735
vn -0.0968 -0.1677 -0.9811
vn -0.2597 -0.4499 -0.8545
vn -0.5485 0.4456 0.7075
vn -0.6528 0.7319 0.1953
vn -0.0000 0.7078 0.7064
vn -0.0000 0.9838 0.1794
vn -0.4656 0.5376 0.7029
vn -0.9770 -0.0000 0.2135
vn -0.7154 -0.0000 0.6987
vn 0.4656 0.5376 0.7029
vn 0.9770 -0.0000 0.2135
vn 0.6528 0.7319 0.1953
vn 0.7154 -0.0000 0.6987
vn 0.3042 -0.9503 0.0665
vn -0.2358 -0.9704 0.0515
vn -0.3042 -0.9503 0.0665
vn 0.2358 -0.9704 0.0515
vn 0.5092 -0.4914 0.7066
vn 0.7440 -0.6481 0.1626
vn -0.5092 -0.4914 0.7066
vn -0.7440 -0.6481 0.1626
vn -0.0000 -0.0000 -1.0000
vn -0.4376 -0.8992 -0.0000
vn -0.7157 -0.3686 -0.5931
vn -0.3319 -0.9024 -0.2747
vn -0.9295 -0.3688 -0.0000
vn -0.4376 0.8992 -0.0000
vn -0.7159 0.3686 0.5930
vn -0.3323 0.9022 0.2749
vn -0.9295 0.3688 -0.0000
vn -0.7157 0.3687 -0.5932
vn -0.3322 0.9022 -0.2750
vn -0.7159 -0.3687 0.5930
vn -0.3322 -0.9023 0.2748
vn 0.4379 0.8990 -0.0000
vn 0.7151 0.3688 -0.5938
vn 0.3311 0.9027 -0.2750
vn 0.9295 0.3688 -0.0000
vn 0.4380 -0.8990 -0.0000
vn 0.7155 -0.3687 0.5934
vn 0.3314 -0.9026 0.2748
vn 0.9295 -0.3688 -0.0000
vn 0.7152 -0.3687 -0.5938
vn 0.3312 -0.9026 -0.2749
vn 0.7153 0.3689 0.5935
vn 0.3313 0.9026 0.2750
vt 0.468750 0.025000
vt 0.468750 0.184184
vt 0.468750 0.225000
vt 0.218750 0.469641
vt 0.218750 0.475000
vt 0.218750 0.459042
vt 0.218750 0.455821
vt 0.218750 0.455000
vt 0.218750 0.447021
vt 0.218750 0.435000
vt 0.218750 0.422979
vt 0.218750 0.415000
vt 0.218750 0.414179
vt 0.218750 0.410958
vt 0.218750 0.400359
vt 0.218750 0.395000
vt 0.218750 0.346367
vt 0.218750 0.355000
vt 0.218750 0.347071
vt 0.218750 0.336213
vt 0.218750 0.298789
vt 0.218750 0.284516
vt 0.218750 0.275000
vt 0.968750 0.164179
vt 0.968750 0.160958
vt 0.968750 0.172979
vt 0.968750 0.185000
vt 0.968750 0.197021
vt 0.968750 0.205821
vt 0.968750 0.209042
vt 0.968750 0.205000
vt 0.968750 0.075000
vt 0.968750 0.175000
vt 0.968750 0.045000
vt 0.968750 0.153660
vt 0.968750 0.225000
vt 0.968750 0.025000
vt 0.968750 0.176481
vt 0.968750 0.193146
vt 0.968750 0.145000
vt 0.468750 0.145000
s 1
usemtl colormap
f 3/1/1 2/2/2 1/2/3
f 2/2/2 3/1/1 4/1/4
f 6/2/5 4/1/4 5/1/6
f 4/1/4 6/2/5 2/2/2
f 3/1/1 8/2/7 7/1/8
f 8/2/7 3/1/1 1/2/3
f 11/2/9 10/1/10 9/2/11
f 10/1/10 11/2/9 12/1/12
f 14/1/13 7/1/13 13/1/13
f 7/1/13 14/1/13 3/1/13
f 3/1/13 14/1/13 4/1/13
f 4/1/13 14/1/13 10/1/13
f 4/1/13 10/1/13 12/1/13
f 4/1/13 12/1/13 5/1/13
f 9/2/11 16/3/14 15/3/15
f 16/3/14 9/2/11 17/2/16
f 8/2/7 19/3/17 18/2/18
f 19/3/17 8/2/7 20/3/19
f 10/1/10 17/2/16 9/2/11
f 17/2/16 10/1/10 14/1/20
f 1/2/3 22/3/21 21/3/22
f 22/3/21 1/2/3 2/2/2
f 2/2/2 23/3/23 22/3/21
f 23/3/23 2/2/2 6/2/5
f 14/1/20 18/2/18 17/2/16
f 18/2/18 14/1/20 13/1/24
f 24/3/25 9/2/11 15/3/15
f 9/2/11 24/3/25 11/2/9
f 19/3/17 17/2/16 18/2/18
f 17/2/16 19/3/17 16/3/14
f 1/2/3 20/3/19 8/2/7
f 20/3/19 1/2/3 21/3/22
f 13/1/24 8/2/7 18/2/18
f 8/2/7 13/1/24 7/1/8
f 6/2/5 12/1/12 11/2/9
f 12/1/12 6/2/5 5/1/6
f 20/3/19 16/3/14 19/3/17
f 16/3/14 20/3/19 21/3/22
f 16/3/14 21/3/22 22/3/21
f 16/3/14 22/3/21 15/3/15
f 15/3/15 22/3/21 23/3/23
f 15/3/15 23/3/23 24/3/25
f 24/3/25 6/2/5 11/2/9
f 6/2/5 24/3/25 23/3/23
f 27/4/26 26/4/26 25/5/26
f 28/6/26 26/4/26 27/4/26
f 27/4/26 29/7/26 28/6/26
f 30/8/26 29/7/26 27/4/26
f 29/7/26 30/8/26 31/9/26
f 32/7/26 26/4/26 28/6/26
f 32/7/26 33/8/26 26/4/26
f 34/9/26 33/8/26 32/7/26
f 35/10/26 33/8/26 34/9/26
f 35/10/26 36/10/26 33/8/26
f 37/11/26 36/10/26 35/10/26
f 37/11/26 38/12/26 36/10/26
f 39/13/26 38/12/26 37/11/26
f 40/14/26 38/12/26 39/13/26
f 38/12/26 40/14/26 41/15/26
f 42/12/26 41/15/26 40/14/26
f 42/12/26 40/14/26 43/13/26
f 42/12/26 43/13/26 44/11/26
f 45/15/26 41/15/26 42/12/26
f 41/15/26 45/15/26 46/16/26
f 68/16/26 67/15/26 63/15/26
f 64/12/26 63/15/26 67/15/26
f 66/11/26 65/13/26 64/12/26
f 65/13/26 62/14/26 64/12/26
f 62/14/26 63/15/26 64/12/26
f 63/15/26 62/14/26 60/12/26
f 61/13/26 60/12/26 62/14/26
f 59/11/26 60/12/26 61/13/26
f 58/10/26 60/12/26 59/11/26
f 57/10/26 58/10/26 59/11/26
f 55/8/26 58/10/26 57/10/26
f 56/9/26 55/8/26 57/10/26
f 54/7/26 55/8/26 56/9/26
f 48/4/26 55/8/26 54/7/26
f 50/6/26 48/4/26 54/7/26
f 53/9/26 52/8/26 51/7/26
f 49/4/26 51/7/26 52/8/26
f 50/6/26 51/7/26 49/4/26
f 49/4/26 48/4/26 50/6/26
f 47/5/26 48/4/26 49/4/26
f 71/17/27 70/18/28 69/18/29
f 70/18/28 71/17/27 72/17/30
s 0
f 73/17/31 72/17/32 71/17/33
s 1
f 72/17/30 74/19/34 70/18/28
s 0
f 73/17/31 71/17/32 75/17/33
s 1
f 76/18/29 73/17/35 75/17/27
f 73/17/35 76/18/29 77/18/36
f 78/19/37 73/17/38 77/18/39
f 79/20/40 73/17/38 78/19/37
f 72/17/30 80/20/34 74/19/34
f 79/20/40 81/21/41 73/17/38
f 81/21/41 72/17/30 73/17/38
f 81/21/41 79/20/40 82/22/42
f 83/21/43 80/20/34 72/17/30
f 72/17/30 81/21/41 83/21/43
f 82/22/42 83/21/43 81/21/41
f 80/20/34 83/21/43 84/22/44
f 83/21/43 82/22/42 84/22/44
f 82/22/42 85/23/45 84/22/44
f 85/23/45 82/22/42 86/23/45
f 86/23/45 87/23/46 85/23/45
f 87/23/46 86/23/45 88/23/46
f 39/24/26 43/24/26 40/25/26
f 43/24/26 39/24/26 44/26/26
f 44/26/26 39/24/26 37/26/26
f 44/26/26 37/26/26 35/27/26
f 44/26/26 35/27/26 89/27/26
f 89/27/26 35/27/26 34/28/26
f 89/27/26 34/28/26 31/28/26
f 31/28/26 34/28/26 32/29/26
f 31/28/26 32/29/26 29/29/26
f 29/29/26 32/29/26 28/30/26
f 50/30/26 54/29/26 51/29/26
f 51/29/26 54/29/26 53/28/26
f 54/29/26 56/28/26 53/28/26
f 53/28/26 56/28/26 90/27/26
f 56/28/26 57/27/26 90/27/26
f 90/27/26 57/27/26 66/26/26
f 57/27/26 59/26/26 66/26/26
f 59/26/26 61/24/26 66/26/26
f 66/26/26 61/24/26 65/24/26
f 62/25/26 65/24/26 61/24/26
f 93/31/47 92/32/48 91/33/49
f 92/32/48 93/31/47 94/34/50
s 0
f 94/34/51 93/31/52 95/35/13
s 1
f 98/32/53 97/31/54 96/34/55
f 97/31/54 98/32/53 99/33/56
f 97/31/54 100/32/57 96/34/55
f 100/32/57 97/31/54 101/33/58
f 97/31/54 103/36/59 102/31/60
f 103/36/59 97/31/54 104/36/61
f 106/37/62 96/34/55 105/34/63
f 96/34/55 106/37/62 107/37/64
f 93/31/47 108/33/65 102/31/60
f 108/33/65 93/31/47 91/33/49
f 94/34/50 106/37/62 105/34/63
f 106/37/62 94/34/50 109/37/66
f 110/32/67 102/31/60 105/34/63
f 102/31/60 110/32/67 111/33/68
f 78/38/40 113/31/69 112/35/70
f 113/31/69 78/38/40 77/39/71
f 114/32/72 99/33/56 98/32/53
f 99/33/56 114/32/72 115/33/73
f 99/33/56 113/31/69 97/31/54
f 113/31/69 99/33/56 115/33/73
f 101/33/58 110/32/67 100/32/57
f 110/32/67 101/33/58 111/33/68
f 103/36/59 117/36/74 116/36/75
f 117/36/74 103/36/59 104/36/61
f 69/39/29 118/33/29 71/33/29
f 118/33/29 69/39/29 76/39/29
s 0
f 76/39/31 69/39/76 70/39/32
f 76/39/76 70/39/32 77/39/31
s 1
f 77/39/71 70/39/77 93/31/47
f 77/39/71 93/31/47 113/31/69
f 116/36/75 113/31/69 93/31/47
f 113/31/69 116/36/75 117/36/74
f 104/36/61 113/31/69 117/36/74
f 113/31/69 104/36/61 97/31/54
f 97/31/54 111/33/68 101/33/58
f 111/33/68 97/31/54 102/31/60
f 93/31/78 74/38/34 95/35/79
f 74/38/34 93/31/78 70/39/80
f 119/32/81 94/34/50 105/34/63
f 94/34/50 119/32/81 92/32/48
f 120/34/82 115/33/73 114/32/72
f 115/33/73 120/34/82 113/31/69
s 0
f 113/31/83 120/34/84 112/35/46
s 1
f 120/34/82 98/32/53 96/34/55
f 98/32/53 120/34/82 114/32/72
f 120/34/82 107/37/64 121/37/85
f 107/37/64 120/34/82 96/34/55
f 91/33/49 119/32/81 108/33/65
f 119/32/81 91/33/49 92/32/48
f 108/33/65 105/34/63 102/31/60
f 105/34/63 108/33/65 119/32/81
f 103/36/59 93/31/47 102/31/60
f 93/31/47 103/36/59 116/36/75
f 100/32/57 105/34/63 96/34/55
f 105/34/63 100/32/57 110/32/67
f 126/36/86 123/36/87 139/31/88
f 138/31/89 139/31/88 123/36/87
f 142/31/90 139/31/88 145/40/91
f 137/40/92 145/40/91 139/31/88
f 144/31/93 130/31/94 143/40/95
f 132/40/96 143/40/95 130/31/94
f 125/36/97 127/36/98 144/31/93
f 130/31/94 144/31/93 127/36/98
f 123/36/87 122/36/99 138/31/89
f 135/31/100 138/31/89 122/36/99
f 129/36/101 131/31/102 127/36/98
f 130/31/94 127/36/98 131/31/102
f 128/36/103 126/36/86 142/31/90
f 139/31/88 142/31/90 126/36/86
f 124/36/104 125/36/97 134/31/105
f 144/31/93 134/31/105 125/36/97
f 138/31/89 135/31/100 136/40/106
f 141/40/107 136/40/106 135/31/100
f 142/31/90 145/40/91 131/31/102
f 133/40/108 131/31/102 145/40/91
f 134/31/105 144/31/93 140/40/109
f 143/40/95 140/40/109 144/31/93
f 128/36/103 142/31/90 129/36/101
f 131/31/102 129/36/101 142/31/90
f 141/40/107 135/31/100 140/40/109
f 134/31/105 140/40/109 135/31/100
f 139/31/88 138/31/89 137/40/92
f 136/40/106 137/40/92 138/31/89
f 122/36/99 124/36/104 135/31/100
f 134/31/105 135/31/100 124/36/104
f 133/40/108 132/40/96 131/31/102
f 130/31/94 131/31/102 132/40/96
f 129/36/101 127/36/98 128/36/103
f 128/36/103 127/36/98 126/36/86
f 127/36/98 125/36/97 126/36/86
f 126/36/86 125/36/97 123/36/87
f 125/36/97 124/36/104 123/36/87
f 122/36/99 123/36/87 124/36/104
f 150/36/110 147/36/111 163/31/112
f 162/31/113 163/31/112 147/36/111
f 166/31/114 163/31/112 169/40/115
f 161/40/116 169/40/115 163/31/112
f 168/31/117 154/31/118 167/40/119
f 156/40/120 167/40/119 154/31/118
f 149/36/121 151/36/122 168/31/117
f 154/31/118 168/31/117 151/36/122
f 147/36/111 146/36/123 162/31/113
f 159/31/124 162/31/113 146/36/123
f 153/36/125 155/31/126 151/36/122
f 154/31/118 151/36/122 155/31/126
f 152/36/127 150/36/110 166/31/114
f 163/31/112 166/31/114 150/36/110
f 148/36/128 149/36/121 158/31/129
f 168/31/117 158/31/129 149/36/121
f 162/31/113 159/31/124 160/40/130
f 165/40/131 160/40/130 159/31/124
f 166/31/114 169/40/115 155/31/126
f 157/40/132 155/31/126 169/40/115
f 158/31/129 168/31/117 164/40/133
f 167/40/119 164/40/133 168/31/117
f 152/36/127 166/31/114 153/36/125
f 155/31/126 153/36/125 166/31/114
f 165/40/131 159/31/124 164/40/133
f 158/31/129 164/40/133 159/31/124
f 163/31/112 162/31/113 161/40/116
f 160/40/130 161/40/116 162/31/113
f 146/36/123 148/36/128 159/31/124
f 158/31/129 159/31/124 148/36/128
f 157/40/132 156/40/120 155/31/126
f 154/31/118 155/31/126 156/40/120
f 153/36/125 151/36/122 152/36/127
f 152/36/127 151/36/122 150/36/110
f 151/36/122 149/36/121 150/36/110
f 150/36/110 149/36/121 147/36/111
f 149/36/121 148/36/128 147/36/111
f 146/36/123 147/36/111 148/36/128
f 172/36/134 171/36/135 170/36/136
f 171/36/135 172/36/134 173/36/137
f 171/36/135 173/36/137 174/36/138
f 174/36/138 173/36/137 175/36/139
f 174/36/138 175/36/139 176/36/140
f 176/36/140 175/36/139 177/36/141
f 180/40/142 179/31/143 178/31/144
f 179/31/143 180/40/142 181/40/145
f 172/36/134 183/31/146 182/31/147
f 183/31/146 172/36/134 170/36/136
f 186/31/148 185/40/149 184/40/150
f 185/40/149 186/31/148 187/31/151
f 183/31/146 188/40/152 182/31/147
f 188/40/152 183/31/146 189/40/153
f 190/31/154 177/36/141 179/31/143
f 177/36/141 190/31/154 176/36/140
f 192/31/155 188/40/152 191/40/156
f 188/40/152 192/31/155 182/31/147
f 193/40/157 179/31/143 181/40/145
f 179/31/143 193/40/157 190/31/154
f 183/31/146 184/40/150 189/40/153
f 184/40/150 183/31/146 186/31/148
f 173/36/137 182/31/147 192/31/155
f 182/31/147 173/36/137 172/36/134
f 174/36/138 190/31/154 187/31/151
f 190/31/154 174/36/138 176/36/140
f 179/31/143 175/36/139 178/31/144
f 175/36/139 179/31/143 177/36/141
f 170/36/136 186/31/148 183/31/146
f 186/31/148 170/36/136 171/36/135
f 175/36/139 192/31/155 178/31/144
f 192/31/155 175/36/139 173/36/137
f 178/31/144 191/40/156 180/40/142
f 191/40/156 178/31/144 192/31/155
f 187/31/151 193/40/157 185/40/149
f 193/40/157 187/31/151 190/31/154
f 171/36/135 187/31/151 186/31/148
f 187/31/151 171/36/135 174/36/138
f 196/41/158 195/3/159 194/41/160
f 195/3/159 196/41/158 197/3/161
f 198/41/162 197/3/161 196/41/158
f 197/3/161 198/41/162 199/3/163
f 202/3/164 201/41/165 200/41/166
f 201/41/165 202/3/164 203/3/167
f 195/3/159 200/41/166 194/41/160
f 200/41/166 195/3/159 202/3/164
f 206/41/168 205/3/169 204/41/170
f 205/3/169 206/41/168 207/3/171
f 208/3/172 201/41/165 203/3/167
f 201/41/165 208/3/172 209/41/173
f 208/3/172 206/41/168 209/41/173
f 206/41/168 208/3/172 207/3/171
f 198/41/162 210/3/174 199/3/163
f 210/3/174 198/41/162 211/41/175
f 204/41/170 210/3/174 211/41/175
f 210/3/174 204/41/170 205/3/169
f 202/3/164 208/3/172 203/3/167
f 208/3/172 202/3/164 207/3/26
f 207/3/26 202/3/164 195/3/159
f 207/3/26 195/3/159 205/3/26
f 205/3/26 195/3/159 197/3/161
f 205/3/26 197/3/161 210/3/174
f 210/3/174 197/3/161 199/3/163
f 209/41/176 200/41/176 201/41/176
f 200/41/176 209/41/176 206/41/176
f 200/41/176 206/41/176 204/41/176
f 200/41/176 204/41/176 194/41/176
f 194/41/176 204/41/176 196/41/176
f 196/41/176 204/41/176 198/41/176
f 198/41/176 204/41/176 211/41/176
f 216/37/177 212/32/178 215/37/179
f 212/32/178 216/37/177 217/32/180
f 220/36/181 219/33/182 218/36/183
f 219/33/182 220/36/181 221/33/184
f 213/33/185 220/36/181 223/36/186
f 220/36/181 213/33/185 221/33/184
f 225/32/187 216/37/177 224/37/188
f 216/37/177 225/32/187 217/32/180
f 212/32/178 221/33/184 213/33/185
f 221/33/184 212/32/178 217/32/180
f 215/37/179 224/37/188 216/37/177
f 225/32/187 221/33/184 217/32/180
f 221/33/184 225/32/187 219/33/182
f 218/36/183 223/36/186 220/36/181
f 230/37/189 226/32/190 229/37/191
f 226/32/190 230/37/189 231/32/192
f 234/36/193 233/33/194 232/36/195
f 233/33/194 234/36/193 235/33/196
f 228/33/197 234/36/193 236/36/198
f 234/36/193 228/33/197 235/33/196
f 238/32/199 230/37/189 237/37/200
f 230/37/189 238/32/199 231/32/192
f 226/32/190 235/33/196 228/33/197
f 235/33/196 226/32/190 231/32/192
f 238/32/199 235/33/196 231/32/192
f 235/33/196 238/32/199 233/33/194
f 241/2/5 240/1/4 239/1/6
f 240/1/4 241/2/5 242/2/2
f 245/2/9 244/1/10 243/2/11
f 244/1/10 245/2/9 246/1/12
f 244/1/10 247/2/16 243/2/11
f 247/2/16 244/1/10 248/1/20
f 241/2/5 246/1/12 245/2/9
f 246/1/12 241/2/5 239/1/6
f 250/1/1 242/2/2 249/2/3
f 242/2/2 250/1/1 240/1/4
f 253/1/24 252/2/7 251/2/18
f 252/2/7 253/1/24 254/1/8
f 250/1/1 252/2/7 254/1/8
f 252/2/7 250/1/1 249/2/3
f 252/2/7 255/3/17 251/2/18
f 255/3/17 252/2/7 256/3/19
f 257/3/25 241/2/5 245/2/9
f 241/2/5 257/3/25 258/3/23
f 248/1/13 254/1/13 253/1/13
f 254/1/13 248/1/13 250/1/13
f 250/1/13 248/1/13 244/1/13
f 250/1/13 244/1/13 240/1/13
f 240/1/13 244/1/13 246/1/13
f 240/1/13 246/1/13 239/1/13
f 257/3/25 243/2/11 259/3/15
f 243/2/11 257/3/25 245/2/9
f 243/2/11 260/3/14 259/3/15
f 260/3/14 243/2/11 247/2/16
f 249/2/3 256/3/19 252/2/7
f 256/3/19 249/2/3 261/3/22
f 248/1/20 251/2/18 247/2/16
f 251/2/18 248/1/20 253/1/24
f 256/3/19 260/3/14 255/3/17
f 260/3/14 256/3/19 261/3/22
f 260/3/14 261/3/22 262/3/21
f 260/3/14 262/3/21 259/3/15
f 259/3/15 262/3/21 258/3/23
f 259/3/15 258/3/23 257/3/25
f 249/2/3 262/3/21 261/3/22
f 262/3/21 249/2/3 242/2/2
f 255/3/17 247/2/16 251/2/18
f 247/2/16 255/3/17 260/3/14
f 242/2/2 258/3/23 262/3/21
f 258/3/23 242/2/2 241/2/5
l 214 222
l 226 227
o right_arm
v 0.242513 1.232160 2.670951
v 0.425911 1.232160 2.670951
v 0.078125 1.118750 2.746558
v 0.312500 1.118750 2.746558
v -0.312500 1.118750 2.746558
v -0.242513 1.232160 2.670951
v -0.062932 1.594250 2.458626
v 0.000000 1.594250 2.432559
v 0.000000 1.594250 2.610559
v 0.062933 1.594250 2.458626
v 0.062933 1.594250 2.584491
v 0.089000 1.594250 2.521558
v 0.135360 1.522250 2.521558
v -0.135360 1.522250 2.521558
v 0.000000 1.522250 2.656918
v 0.095714 1.522250 2.617272
v -0.196636 1.575458 2.411862
v -0.162273 1.568076 2.353512
v -0.088746 1.533442 2.380484
v -0.141008 1.544671 2.469229
v 0.316426 1.479076 2.353513
v 0.305638 1.512526 2.411862
v 0.256020 1.552449 2.436032
v 0.196636 1.575458 2.411862
v 0.162273 1.568076 2.353512
v 0.088746 1.533442 2.380484
v 0.323196 1.398082 2.380484
v 0.306789 1.448957 2.469229
v 0.231324 1.509676 2.505988
v 0.141008 1.544671 2.469229
v 0.057842 1.350617 2.526961
v 1.063816 0.693750 2.367452
v 0.979264 0.693750 2.477260
v 1.017174 0.743750 2.346071
v 0.948746 0.743750 2.434939
v 1.094764 0.593750 2.217452
v 1.063816 0.593750 2.067452
v 1.043711 0.543750 2.217452
v 1.017174 0.543750 2.088833
v 0.463660 0.593750 2.067452
v 0.632764 0.593750 1.957644
v 0.463660 0.693750 2.067452
v 0.632764 0.693750 1.957644
v 1.094764 0.693750 2.217452
v 1.043711 0.743750 2.217452
v 1.063816 0.693750 2.067452
v 1.017174 0.743750 2.088833
v 0.632764 0.593750 2.477260
v 0.632764 0.693750 2.477260
v 0.863764 0.593750 2.517452
v 0.863764 0.693750 2.517452
v 0.503943 0.543750 2.100911
v 0.455853 0.543750 2.217452
v 0.401764 0.593750 2.217452
v 0.651414 0.543750 2.005151
v 1.063816 0.593750 2.367452
v 0.503943 0.743750 2.333993
v 0.463660 0.693750 2.367452
v 0.455853 0.743750 2.217452
v 0.401764 0.693750 2.217452
v 0.859569 0.743750 2.465971
v 0.859569 0.543750 2.465971
v 0.651414 0.543750 2.429753
v 0.503943 0.743750 2.100911
v 0.503943 0.543750 2.333993
v 0.463660 0.593750 2.367452
v 0.863764 0.593750 1.917452
v 0.859569 0.543750 1.968933
v 1.017174 0.543750 2.346071
v 0.948746 0.543750 2.434939
v 0.948746 0.543750 1.999965
v 0.979264 0.593750 2.477260
v 0.863764 0.693750 1.917452
v 0.859569 0.743750 1.968933
v 0.651414 0.743750 2.005151
v 0.979264 0.593750 1.957644
v 0.979264 0.693750 1.957644
v 0.948746 0.743750 1.999965
v 0.651414 0.743750 2.429753
v -1.063816 0.593750 2.367452
v -0.979264 0.593750 2.477260
v -1.017174 0.543750 2.346071
v -0.948746 0.543750 2.434939
v -1.094764 0.693750 2.217452
v -1.063816 0.693750 2.067452
v -1.043711 0.743750 2.217452
v -1.017174 0.743750 2.088833
v -0.463660 0.693750 2.067452
v -0.632764 0.693750 1.957644
v -0.463660 0.593750 2.067452
v -0.632764 0.593750 1.957644
v -1.094764 0.593750 2.217452
v -1.043711 0.543750 2.217452
v -1.063816 0.593750 2.067452
v -1.017174 0.543750 2.088833
v -0.632764 0.693750 2.477260
v -0.632764 0.593750 2.477260
v -0.863764 0.693750 2.517452
v -0.863764 0.593750 2.517452
v -0.503943 0.743750 2.100911
v -0.455853 0.743750 2.217452
v -0.401764 0.693750 2.217452
v -0.651414 0.743750 2.005151
v -1.063816 0.693750 2.367452
v -0.503943 0.543750 2.333993
v -0.463660 0.593750 2.367452
v -0.455853 0.543750 2.217452
v -0.401764 0.593750 2.217452
v -0.859569 0.543750 2.465971
v -0.859569 0.743750 2.465971
v -0.651414 0.743750 2.429753
v -0.503943 0.543750 2.100911
v -0.503943 0.743750 2.333993
v -0.463660 0.693750 2.367452
v -0.863764 0.693750 1.917452
v -0.859569 0.743750 1.968933
v -1.017174 0.743750 2.346071
v -0.948746 0.743750 2.434939
v -0.948746 0.743750 1.999965
v -0.979264 0.693750 2.477260
v -0.863764 0.593750 1.917452
v -0.859569 0.543750 1.968933
v -0.651414 0.543750 2.005151
v -0.979264 0.693750 1.957644
v -0.979264 0.593750 1.957644
v -0.948746 0.543750 1.999965
v -0.651414 0.543750 2.429753
vn 0.3830 0.9069 0.1756
vn 0.5437 0.3688 0.7539
vn 0.8445 0.3701 0.3871
vn 0.2508 0.9034 0.3479
vn 0.4182 -0.9083 -0.0000
vn 0.8445 -0.3701 -0.3871
vn 0.9287 -0.3707 -0.0000
vn 0.3830 -0.9069 -0.1756
vn -0.7151 0.3687 -0.5939
vn -0.3394 -0.3708 -0.8645
vn -0.7151 -0.3687 -0.5939
vn -0.3394 0.3708 -0.8645
vn 0.8445 0.3701 -0.3871
vn 0.4182 0.9083 -0.0000
vn 0.9287 0.3707 -0.0000
vn 0.3830 0.9069 -0.1756
vn 0.0755 -0.3694 0.9262
vn -0.3394 0.3708 0.8645
vn -0.3394 -0.3708 0.8645
vn 0.0755 0.3694 0.9262
vn -0.4376 -0.8992 -0.0000
vn -0.3309 -0.9028 -0.2748
vn -0.9295 -0.3688 -0.0000
vn -0.1527 -0.9084 -0.3891
vn 0.8445 -0.3701 0.3871
vn -0.4376 0.8992 -0.0000
vn -0.7151 0.3687 0.5939
vn -0.3309 0.9028 0.2748
vn -0.9295 0.3688 -0.0000
vn 0.0345 0.9053 0.4234
vn 0.0345 -0.9053 0.4233
vn -0.1527 -0.9084 0.3891
vn -0.3309 0.9028 -0.2748
vn -0.7151 -0.3687 0.5939
vn -0.3309 -0.9028 0.2748
vn 0.0345 -0.9053 -0.4233
vn 0.0755 -0.3694 -0.9262
vn 0.3830 -0.9069 0.1756
vn 0.2508 -0.9034 0.3479
vn 0.2508 -0.9034 -0.3479
vn 0.5437 -0.3688 0.7539
vn 0.0345 0.9053 -0.4233
vn 0.0755 0.3694 -0.9262
vn -0.1527 0.9084 -0.3891
vn 0.5437 -0.3688 -0.7539
vn 0.5437 0.3688 -0.7539
vn 0.2509 0.9034 -0.3479
vn -0.1527 0.9084 0.3891
vt 0.968750 0.225000
vt 0.968750 0.175000
vt 0.968750 0.025000
vt 0.968750 0.075000
s 1
usemtl colormap.001
f 296/42/201 295/43/202 294/43/203
f 295/43/202 296/42/201 297/42/204
f 300/44/205 299/45/206 298/45/207
f 299/45/206 300/44/205 301/44/208
f 304/43/209 303/45/210 302/45/211
f 303/45/210 304/43/209 305/43/212
f 308/43/213 307/42/214 306/43/215
f 307/42/214 308/43/213 309/42/216
f 312/45/217 311/43/218 310/45/219
f 311/43/218 312/45/217 313/43/220
f 315/44/221 302/45/211 314/44/222
f 302/45/211 315/44/221 316/45/223
f 314/44/222 303/45/210 317/44/224
f 303/45/210 314/44/222 302/45/211
f 306/43/215 299/45/206 308/43/213
f 299/45/206 306/43/215 298/45/207
f 294/43/203 298/45/207 306/43/215
f 298/45/207 294/43/203 318/45/225
f 321/42/226 320/43/227 319/42/228
f 320/43/227 321/42/226 322/43/229
f 297/42/204 313/43/220 295/43/202
f 313/43/220 297/42/204 323/42/230
f 310/45/219 324/44/231 312/45/217
f 324/44/231 310/45/219 325/44/232
f 304/43/209 321/42/226 326/42/233
f 321/42/226 304/43/209 322/43/229
f 328/45/234 315/44/221 327/44/235
f 315/44/221 328/45/234 316/45/223
f 302/45/211 322/43/229 304/43/209
f 322/43/229 302/45/211 316/45/223
f 330/44/236 303/45/210 329/45/237
f 303/45/210 330/44/236 317/44/224
f 331/44/238 301/44/208 300/44/205
f 301/44/208 331/44/238 332/44/239
f 301/44/208 332/44/239 333/44/240
f 333/44/240 332/44/239 324/44/231
f 333/44/240 324/44/231 330/44/236
f 330/44/236 324/44/231 325/44/232
f 330/44/236 325/44/232 317/44/224
f 317/44/224 325/44/232 327/44/235
f 317/44/224 327/44/235 314/44/222
f 314/44/222 327/44/235 315/44/221
f 310/45/219 327/44/235 325/44/232
f 327/44/235 310/45/219 328/45/234
f 328/45/234 322/43/229 316/45/223
f 322/43/229 328/45/234 320/43/227
f 334/45/241 331/44/238 318/45/225
f 331/44/238 334/45/241 332/44/239
f 305/43/212 336/42/242 335/43/243
f 336/42/242 305/43/212 337/42/244
f 311/43/218 328/45/234 310/45/219
f 328/45/234 311/43/218 320/43/227
f 305/43/212 329/45/237 303/45/210
f 329/45/237 305/43/212 335/43/243
f 295/43/202 318/45/225 294/43/203
f 318/45/225 295/43/202 334/45/241
f 318/45/225 300/44/205 298/45/207
f 300/44/205 318/45/225 331/44/238
f 301/44/208 338/45/245 299/45/206
f 338/45/245 301/44/208 333/44/240
f 329/45/237 339/43/246 338/45/245
f 339/43/246 329/45/237 335/43/243
f 335/43/243 340/42/247 339/43/246
f 340/42/247 335/43/243 336/42/242
f 323/42/230 311/43/218 313/43/220
f 311/43/218 323/42/230 341/42/248
f 295/43/202 312/45/217 334/45/241
f 312/45/217 295/43/202 313/43/220
f 319/42/228 311/43/218 341/42/248
f 311/43/218 319/42/228 320/43/227
f 308/43/213 338/45/245 339/43/246
f 338/45/245 308/43/213 299/45/206
f 307/42/214 294/43/203 306/43/215
f 294/43/203 307/42/214 296/42/201
f 339/43/246 309/42/216 308/43/213
f 309/42/216 339/43/246 340/42/247
f 305/43/212 326/42/233 337/42/244
f 326/42/233 305/43/212 304/43/209
f 309/42/216 296/42/201 307/42/214
f 296/42/201 309/42/216 340/42/247
f 296/42/201 340/42/247 297/42/204
f 297/42/204 340/42/247 323/42/230
f 323/42/230 340/42/247 336/42/242
f 323/42/230 336/42/242 337/42/244
f 323/42/230 337/42/244 341/42/248
f 341/42/248 337/42/244 319/42/228
f 319/42/228 337/42/244 326/42/233
f 319/42/228 326/42/233 321/42/226
f 333/44/240 329/45/237 338/45/245
f 329/45/237 333/44/240 330/44/236
f 312/45/217 332/44/239 334/45/241
f 332/44/239 312/45/217 324/44/231
o right_arm.001
v -0.181679 1.232160 1.773252
v -0.365077 1.232160 1.773252
v -0.017291 1.118750 1.697645
v -0.251666 1.118750 1.697645
v 0.373334 1.118750 1.697645
v 0.303347 1.232160 1.773252
v 0.123766 1.594250 1.985577
v 0.060834 1.594250 2.011645
v 0.060834 1.594250 1.833645
v -0.002099 1.594250 1.985577
v -0.002099 1.594250 1.859712
v -0.028166 1.594250 1.922645
v -0.074526 1.522250 1.922645
v 0.196194 1.522250 1.922645
v 0.060834 1.522250 1.787285
v -0.034880 1.522250 1.826931
v 0.257470 1.575458 2.032341
v 0.223107 1.568076 2.090691
v 0.149580 1.533442 2.063719
v 0.201842 1.544671 1.974975
v -0.255592 1.479076 2.090691
v -0.244804 1.512526 2.032341
v -0.195186 1.552449 2.008171
v -0.135802 1.575458 2.032341
v -0.101440 1.568076 2.090691
v -0.027912 1.533442 2.063719
v -0.262362 1.398082 2.063719
v -0.245955 1.448957 1.974975
v -0.170491 1.509676 1.938215
v -0.080174 1.544671 1.974975
v 0.002992 1.350617 1.917242
v -1.002982 0.693750 2.076751
v -0.918430 0.693750 1.966943
v -0.956340 0.743750 2.098132
v -0.887912 0.743750 2.009264
v -1.033930 0.593750 2.226751
v -1.002982 0.593750 2.376751
v -0.982877 0.543750 2.226751
v -0.956340 0.543750 2.355370
v -0.402826 0.593750 2.376751
v -0.571930 0.593750 2.486559
v -0.402826 0.693750 2.376751
v -0.571930 0.693750 2.486559
v -1.033930 0.693750 2.226751
v -0.982877 0.743750 2.226751
v -1.002982 0.693750 2.376751
v -0.956340 0.743750 2.355370
v -0.571930 0.593750 1.966943
v -0.571930 0.693750 1.966943
v -0.802930 0.593750 1.926751
v -0.802930 0.693750 1.926751
v -0.443109 0.543750 2.343292
v -0.395020 0.543750 2.226751
v -0.340930 0.593750 2.226751
v -0.590580 0.543750 2.439053
v -1.002982 0.593750 2.076751
v -0.443109 0.743750 2.110210
v -0.402826 0.693750 2.076751
v -0.395020 0.743750 2.226751
v -0.340930 0.693750 2.226751
v -0.798735 0.743750 1.978232
v -0.798735 0.543750 1.978232
v -0.590580 0.543750 2.014450
v -0.443109 0.743750 2.343292
v -0.443109 0.543750 2.110210
v -0.402826 0.593750 2.076751
v -0.802930 0.593750 2.526751
v -0.798735 0.543750 2.475270
v -0.956340 0.543750 2.098132
v -0.887912 0.543750 2.009264
v -0.887912 0.543750 2.444237
v -0.918430 0.593750 1.966943
v -0.802930 0.693750 2.526751
v -0.798735 0.743750 2.475270
v -0.590580 0.743750 2.439053
v -0.918430 0.593750 2.486559
v -0.918430 0.693750 2.486559
v -0.887912 0.743750 2.444237
v -0.590580 0.743750 2.014450
v 1.124650 0.593750 2.076751
v 1.040098 0.593750 1.966944
v 1.078008 0.543750 2.098132
v 1.009580 0.543750 2.009265
v 1.155598 0.693750 2.226751
v 1.124650 0.693750 2.376751
v 1.104545 0.743750 2.226751
v 1.078008 0.743750 2.355370
v 0.524494 0.693750 2.376751
v 0.693598 0.693750 2.486559
v 0.524494 0.593750 2.376751
v 0.693598 0.593750 2.486559
v 1.155598 0.593750 2.226751
v 1.104545 0.543750 2.226751
v 1.124650 0.593750 2.376751
v 1.078008 0.543750 2.355370
v 0.693598 0.693750 1.966944
v 0.693598 0.593750 1.966944
v 0.924598 0.693750 1.926751
v 0.924598 0.593750 1.926751
v 0.564777 0.743750 2.343292
v 0.516687 0.743750 2.226751
v 0.462598 0.693750 2.226751
v 0.712248 0.743750 2.439053
v 1.124650 0.693750 2.076751
v 0.564777 0.543750 2.110210
v 0.524494 0.593750 2.076751
v 0.516687 0.543750 2.226751
v 0.462598 0.593750 2.226751
v 0.920403 0.543750 1.978232
v 0.920403 0.743750 1.978232
v 0.712248 0.743750 2.014450
v 0.564777 0.543750 2.343292
v 0.564777 0.743750 2.110210
v 0.524494 0.693750 2.076751
v 0.924598 0.693750 2.526751
v 0.920403 0.743750 2.475270
v 1.078008 0.743750 2.098132
v 1.009580 0.743750 2.009265
v 1.009580 0.743750 2.444238
v 1.040098 0.693750 1.966944
v 0.924598 0.593750 2.526751
v 0.920403 0.543750 2.475270
v 0.712248 0.543750 2.439053
v 1.040098 0.693750 2.486559
v 1.040098 0.593750 2.486559
v 1.009580 0.543750 2.444238
v 0.712248 0.543750 2.014450
vn -0.3830 0.9069 -0.1756
vn -0.5437 0.3688 -0.7539
vn -0.8445 0.3701 -0.3871
vn -0.2508 0.9034 -0.3479
vn -0.4182 -0.9083 -0.0000
vn -0.8445 -0.3701 0.3871
vn -0.9287 -0.3707 -0.0000
vn -0.3830 -0.9069 0.1756
vn 0.7151 0.3687 0.5939
vn 0.3394 -0.3708 0.8645
vn 0.7151 -0.3687 0.5939
vn 0.3394 0.3708 0.8645
vn -0.8445 0.3701 0.3871
vn -0.4182 0.9083 -0.0000
vn -0.9287 0.3707 -0.0000
vn -0.3830 0.9069 0.1756
vn -0.0755 -0.3694 -0.9262
vn 0.3394 0.3708 -0.8645
vn 0.3394 -0.3708 -0.8645
vn -0.0755 0.3694 -0.9262
vn 0.4376 -0.8992 -0.0000
vn 0.3309 -0.9028 0.2748
vn 0.9295 -0.3688 -0.0000
vn 0.1527 -0.9084 0.3891
vn -0.8445 -0.3701 -0.3871
vn 0.4376 0.8992 -0.0000
vn 0.7151 0.3687 -0.5939
vn 0.3309 0.9028 -0.2748
vn 0.9295 0.3688 -0.0000
vn -0.0345 0.9053 -0.4234
vn -0.0345 -0.9053 -0.4233
vn 0.1527 -0.9084 -0.3891
vn 0.3309 0.9028 0.2748
vn 0.7151 -0.3687 -0.5939
vn 0.3309 -0.9028 -0.2748
vn -0.0345 -0.9053 0.4233
vn -0.0755 -0.3694 0.9262
vn -0.3830 -0.9069 -0.1756
vn -0.2508 -0.9034 -0.3479
vn -0.2508 -0.9034 0.3479
vn -0.5437 -0.3688 -0.7539
vn -0.0345 0.9053 0.4233
vn -0.0755 0.3694 0.9262
vn 0.1527 0.9084 0.3891
vn -0.5437 -0.3688 0.7539
vn -0.5437 0.3688 0.7539
vn -0.2509 0.9034 0.3479
vn 0.1527 0.9084 -0.3891
vt 0.968750 0.225000
vt 0.968750 0.175000
vt 0.968750 0.025000
vt 0.968750 0.075000
s 1
usemtl colormap.002
f 423/46/249 422/47/250 421/47/251
f 422/47/250 423/46/249 424/46/252
f 427/48/253 426/49/254 425/49/255
f 426/49/254 427/48/253 428/48/256
f 431/47/257 430/49/258 429/49/259
f 430/49/258 431/47/257 432/47/260
f 435/47/261 434/46/262 433/47/263
f 434/46/262 435/47/261 436/46/264
f 439/49/265 438/47/266 437/49/267
f 438/47/266 439/49/265 440/47/268
f 442/48/269 429/49/259 441/48/270
f 429/49/259 442/48/269 443/49/271
f 441/48/270 430/49/258 444/48/272
f 430/49/258 441/48/270 429/49/259
f 433/47/263 426/49/254 435/47/261
f 426/49/254 433/47/263 425/49/255
f 421/47/251 425/49/255 433/47/263
f 425/49/255 421/47/251 445/49/273
f 448/46/274 447/47/275 446/46/276
f 447/47/275 448/46/274 449/47/277
f 424/46/252 440/47/268 422/47/250
f 440/47/268 424/46/252 450/46/278
f 437/49/267 451/48/279 439/49/265
f 451/48/279 437/49/267 452/48/280
f 431/47/257 448/46/274 453/46/281
f 448/46/274 431/47/257 449/47/277
f 455/49/282 442/48/269 454/48/283
f 442/48/269 455/49/282 443/49/271
f 429/49/259 449/47/277 431/47/257
f 449/47/277 429/49/259 443/49/271
f 457/48/284 430/49/258 456/49/285
f 430/49/258 457/48/284 444/48/272
f 458/48/286 428/48/256 427/48/253
f 428/48/256 458/48/286 459/48/287
f 428/48/256 459/48/287 460/48/288
f 460/48/288 459/48/287 451/48/279
f 460/48/288 451/48/279 457/48/284
f 457/48/284 451/48/279 452/48/280
f 457/48/284 452/48/280 444/48/272
f 444/48/272 452/48/280 454/48/283
f 444/48/272 454/48/283 441/48/270
f 441/48/270 454/48/283 442/48/269
f 437/49/267 454/48/283 452/48/280
f 454/48/283 437/49/267 455/49/282
f 455/49/282 449/47/277 443/49/271
f 449/47/277 455/49/282 447/47/275
f 461/49/289 458/48/286 445/49/273
f 458/48/286 461/49/289 459/48/287
f 432/47/260 463/46/290 462/47/291
f 463/46/290 432/47/260 464/46/292
f 438/47/266 455/49/282 437/49/267
f 455/49/282 438/47/266 447/47/275
f 432/47/260 456/49/285 430/49/258
f 456/49/285 432/47/260 462/47/291
f 422/47/250 445/49/273 421/47/251
f 445/49/273 422/47/250 461/49/289
f 445/49/273 427/48/253 425/49/255
f 427/48/253 445/49/273 458/48/286
f 428/48/256 465/49/293 426/49/254
f 465/49/293 428/48/256 460/48/288
f 456/49/285 466/47/294 465/49/293
f 466/47/294 456/49/285 462/47/291
f 462/47/291 467/46/295 466/47/294
f 467/46/295 462/47/291 463/46/290
f 450/46/278 438/47/266 440/47/268
f 438/47/266 450/46/278 468/46/296
f 422/47/250 439/49/265 461/49/289
f 439/49/265 422/47/250 440/47/268
f 446/46/276 438/47/266 468/46/296
f 438/47/266 446/46/276 447/47/275
f 435/47/261 465/49/293 466/47/294
f 465/49/293 435/47/261 426/49/254
f 434/46/262 421/47/251 433/47/263
f 421/47/251 434/46/262 423/46/249
f 466/47/294 436/46/264 435/47/261
f 436/46/264 466/47/294 467/46/295
f 432/47/260 453/46/281 464/46/292
f 453/46/281 432/47/260 431/47/257
f 436/46/264 423/46/249 434/46/262
f 423/46/249 436/46/264 467/46/295
f 423/46/249 467/46/295 424/46/252
f 424/46/252 467/46/295 450/46/278
f 450/46/278 467/46/295 463/46/290
f 450/46/278 463/46/290 464/46/292
f 450/46/278 464/46/292 468/46/296
f 468/46/296 464/46/292 446/46/276
f 446/46/276 464/46/292 453/46/281
f 446/46/276 453/46/281 448/46/274
f 460/48/288 456/49/285 465/49/293
f 456/49/285 460/48/288 457/48/284
f 439/49/265 459/48/287 461/49/289
f 459/48/287 439/49/265 451/48/279
